<svg xmlns="http://www.w3.org/2000/svg" width="48" height="48" viewBox="0 0 48 48">
    <path fill-rule="evenodd" d="M37.764 29.147h-3.015v-6.802c0-1.566-.912-2.407-2.314-2.407-1.566 0-2.571.958-2.571 2.897v6.312h-3.016V12.51h3.016v6.259c.725-1.099 1.893-1.637 3.483-1.637 1.285 0 2.337.421 3.155 1.286.842.865 1.262 2.034 1.262 3.553v7.176zm-21.679-2.839c2.225 0 4.127-1.332 4.699-3.389h3.291c-.805 3.959-3.886 6.554-7.99 6.554-4.769 0-8.551-3.556-8.551-8.508 0-4.95 3.782-8.507 8.551-8.507 4.145 0 7.248 2.647 8.014 6.673h-3.281c-.499-2.189-2.467-3.553-4.733-3.553-3.207 0-5.34 2.288-5.34 5.387 0 3.101 2.426 5.343 5.34 5.343zM23.692 0C11.16 0 1 9.397 1 20.989c0 8.562 3.585 12.649 8.496 16.375l.024.01v10.047c0 .474.54.747.921.463l8.605-6.392.186.081c1.442.265 2.933.406 4.46.406 12.533 0 22.692-9.397 22.692-20.99C46.384 9.397 36.225 0 23.692 0z" opacity=".2"/>
</svg>
