<svg xmlns="http://www.w3.org/2000/svg" xmlns:xlink="http://www.w3.org/1999/xlink" width="56" height="56" viewBox="0 0 56 56">
    <defs>
        <path id="prefix__a" d="M0.006 0.002L53.666 0.002 53.666 53.34 0.006 53.34z"/>
    </defs>
    <g fill="none" fill-rule="evenodd" opacity=".2" transform="translate(1.167)">
        <mask id="prefix__b" fill="#fff">
            <use xlink:href="#prefix__a"/>
        </mask>
        <path fill="#000" d="M53.667 26.833C53.667 12.013 41.653 0 26.833 0S0 12.014 0 26.833C0 40.227 9.812 51.328 22.64 53.34V34.59h-6.813v-7.757h6.814v-5.912c0-6.725 4.006-10.44 10.135-10.44 2.936 0 6.006.525 6.006.525v6.603h-3.383c-3.333 0-4.373 2.069-4.373 4.19v5.034h7.442l-1.19 7.756h-6.252V53.34c12.829-2.012 22.64-13.113 22.64-26.507" mask="url(#prefix__b)"/>
        <path fill="#FEFEFE" d="M37.278 34.59l1.19-7.756h-7.442v-5.035c0-2.12 1.04-4.19 4.373-4.19h3.383v-6.603s-3.07-.524-6.006-.524c-6.13 0-10.135 3.715-10.135 10.44v5.912h-6.814v7.756h6.814v18.75c1.366.215 2.766.326 4.193.326 1.426 0 2.826-.11 4.192-.325V34.59h6.252z"/>
    </g>
</svg>
